<svg xmlns="http://www.w3.org/2000/svg" xmlns:xlink="http://www.w3.org/1999/xlink" width="48" zoomAndPan="magnify" viewBox="0 0 36 36.000001" height="48" preserveAspectRatio="xMidYMid meet" version="1.0"><defs><g/><clipPath id="id1"><path d="M 6.617188 15.628906 L 29.242188 15.628906 L 29.242188 19.28125 L 6.617188 19.28125 Z M 6.617188 15.628906 " clip-rule="nonzero"/></clipPath></defs><g fill="#000000" fill-opacity="1"><g transform="translate(10.573068, 23.713299)"><g><path d="M 6.167969 0 C 6.332031 0 6.421875 -0.109375 6.421875 -0.328125 L 6.421875 -1.886719 C 6.421875 -2.105469 6.332031 -2.199219 6.167969 -2.199219 L 3.082031 -2.199219 L 3.082031 -12.269531 C 3.082031 -12.488281 2.992188 -12.625 2.78125 -12.625 L 0.957031 -12.625 C 0.757812 -12.625 0.65625 -12.488281 0.65625 -12.269531 L 0.65625 -0.347656 C 0.65625 -0.128906 0.757812 0 0.96875 0 Z M 6.167969 0 "/></g></g></g><g fill="#000000" fill-opacity="1"><g transform="translate(18.129256, 23.713299)"><g><path d="M 4.589844 -8.964844 C 4.589844 -8.710938 4.625 -8.621094 4.851562 -8.621094 L 6.484375 -8.621094 C 6.777344 -8.621094 6.839844 -8.710938 6.839844 -8.964844 L 6.839844 -9.484375 C 6.839844 -11.503906 5.492188 -12.816406 3.601562 -12.816406 C 2.324219 -12.816406 0.363281 -11.914062 0.363281 -9.539062 C 0.363281 -7.453125 1.222656 -6.851562 3.128906 -5.300781 C 4.25 -4.386719 4.726562 -3.976562 4.726562 -3.09375 C 4.726562 -2.425781 4.257812 -2.007812 3.683594 -2.007812 C 3.21875 -2.007812 2.644531 -2.296875 2.644531 -3.210938 L 2.644531 -3.621094 C 2.644531 -3.894531 2.589844 -3.996094 2.335938 -3.996094 L 0.675781 -3.996094 C 0.417969 -3.996094 0.363281 -3.867188 0.363281 -3.558594 L 0.363281 -3.074219 C 0.363281 -1.359375 1.46875 0.199219 3.667969 0.199219 C 5.683594 0.199219 7.03125 -1.257812 7.03125 -2.964844 C 7.03125 -5.273438 5.671875 -6.265625 3.96875 -7.589844 C 3.15625 -8.21875 2.617188 -8.609375 2.617188 -9.476562 C 2.617188 -10.308594 3.148438 -10.625 3.601562 -10.625 C 4.257812 -10.625 4.589844 -10.105469 4.589844 -9.476562 Z M 4.589844 -8.964844 "/></g></g></g><g clip-path="url(#id1)"><path fill="#ffffff" d="M 6.625 15.628906 L 29.234375 15.628906 L 29.234375 19.28125 L 6.625 19.28125 L 6.625 15.628906 " fill-opacity="1" fill-rule="nonzero"/></g><g fill="#000000" fill-opacity="1"><g transform="translate(8.742593, 18.108976)"><g><path d="M 0.554688 0 C 0.570312 0 0.578125 -0.0117188 0.578125 -0.03125 L 0.578125 -0.167969 C 0.578125 -0.191406 0.570312 -0.199219 0.554688 -0.199219 L 0.277344 -0.199219 L 0.277344 -1.105469 C 0.277344 -1.125 0.269531 -1.136719 0.25 -1.136719 L 0.0859375 -1.136719 C 0.0664062 -1.136719 0.0585938 -1.125 0.0585938 -1.105469 L 0.0585938 -0.03125 C 0.0585938 -0.0117188 0.0664062 0 0.0859375 0 Z M 0.554688 0 "/></g></g></g><g fill="#000000" fill-opacity="1"><g transform="translate(10.204077, 18.108976)"><g><path d="M 0.277344 -0.199219 L 0.277344 -0.476562 L 0.515625 -0.476562 C 0.53125 -0.476562 0.542969 -0.484375 0.542969 -0.503906 L 0.542969 -0.644531 C 0.542969 -0.664062 0.53125 -0.671875 0.515625 -0.671875 L 0.277344 -0.671875 L 0.277344 -0.9375 L 0.578125 -0.9375 C 0.59375 -0.9375 0.601562 -0.945312 0.601562 -0.964844 L 0.601562 -1.105469 C 0.601562 -1.125 0.59375 -1.136719 0.578125 -1.136719 L 0.0859375 -1.136719 C 0.0703125 -1.136719 0.0585938 -1.125 0.0585938 -1.105469 L 0.0585938 -0.03125 C 0.0585938 -0.0117188 0.0664062 0 0.0859375 0 L 0.582031 0 C 0.59375 0 0.605469 -0.0078125 0.605469 -0.0273438 L 0.605469 -0.167969 C 0.605469 -0.1875 0.59375 -0.199219 0.582031 -0.199219 Z M 0.277344 -0.199219 "/></g></g></g><g fill="#000000" fill-opacity="1"><g transform="translate(11.694275, 18.108976)"><g><path d="M 0.652344 -0.867188 C 0.652344 -1.046875 0.511719 -1.152344 0.347656 -1.152344 C 0.183594 -1.152344 0.0429688 -1.046875 0.0429688 -0.867188 L 0.0429688 -0.265625 C 0.0429688 -0.09375 0.183594 0.0195312 0.347656 0.0195312 C 0.511719 0.0195312 0.652344 -0.0898438 0.652344 -0.265625 Z M 0.347656 -0.957031 C 0.402344 -0.957031 0.4375 -0.910156 0.4375 -0.855469 L 0.4375 -0.273438 C 0.4375 -0.222656 0.402344 -0.179688 0.347656 -0.179688 C 0.289062 -0.179688 0.257812 -0.226562 0.257812 -0.277344 L 0.257812 -0.855469 C 0.257812 -0.910156 0.292969 -0.957031 0.347656 -0.957031 Z M 0.347656 -0.957031 "/></g></g></g><g fill="#000000" fill-opacity="1"><g transform="translate(13.255029, 18.108976)"><g><path d="M 0.636719 0 C 0.65625 0 0.664062 -0.015625 0.664062 -0.03125 L 0.664062 -0.867188 C 0.664062 -1.027344 0.523438 -1.152344 0.359375 -1.152344 C 0.195312 -1.152344 0.0507812 -1.027344 0.0507812 -0.867188 L 0.0507812 -0.03125 C 0.0507812 -0.015625 0.0625 0 0.0742188 0 L 0.246094 0 C 0.265625 0 0.269531 -0.015625 0.269531 -0.03125 L 0.269531 -0.855469 C 0.269531 -0.910156 0.304688 -0.957031 0.359375 -0.957031 C 0.414062 -0.957031 0.445312 -0.910156 0.445312 -0.855469 L 0.445312 -0.03125 C 0.445312 -0.015625 0.457031 0 0.472656 0 Z M 0.636719 0 "/></g></g></g><g fill="#000000" fill-opacity="1"><g transform="translate(14.837113, 18.108976)"><g><path d="M 0.277344 -0.199219 L 0.277344 -0.476562 L 0.515625 -0.476562 C 0.53125 -0.476562 0.542969 -0.484375 0.542969 -0.503906 L 0.542969 -0.644531 C 0.542969 -0.664062 0.53125 -0.671875 0.515625 -0.671875 L 0.277344 -0.671875 L 0.277344 -0.9375 L 0.578125 -0.9375 C 0.59375 -0.9375 0.601562 -0.945312 0.601562 -0.964844 L 0.601562 -1.105469 C 0.601562 -1.125 0.59375 -1.136719 0.578125 -1.136719 L 0.0859375 -1.136719 C 0.0703125 -1.136719 0.0585938 -1.125 0.0585938 -1.105469 L 0.0585938 -0.03125 C 0.0585938 -0.0117188 0.0664062 0 0.0859375 0 L 0.582031 0 C 0.59375 0 0.605469 -0.0078125 0.605469 -0.0273438 L 0.605469 -0.167969 C 0.605469 -0.1875 0.59375 -0.199219 0.582031 -0.199219 Z M 0.277344 -0.199219 "/></g></g></g><g fill="#000000" fill-opacity="1"><g transform="translate(16.327311, 18.108976)"><g><path d="M 0.554688 0 C 0.570312 0 0.578125 -0.0117188 0.578125 -0.03125 L 0.578125 -0.167969 C 0.578125 -0.191406 0.570312 -0.199219 0.554688 -0.199219 L 0.277344 -0.199219 L 0.277344 -1.105469 C 0.277344 -1.125 0.269531 -1.136719 0.25 -1.136719 L 0.0859375 -1.136719 C 0.0664062 -1.136719 0.0585938 -1.125 0.0585938 -1.105469 L 0.0585938 -0.03125 C 0.0585938 -0.0117188 0.0664062 0 0.0859375 0 Z M 0.554688 0 "/></g></g></g><g fill="#000000" fill-opacity="1"><g transform="translate(17.788795, 18.108976)"><g/></g></g><g fill="#000000" fill-opacity="1"><g transform="translate(19.035331, 18.108976)"><g><path d="M 0.414062 -0.808594 C 0.414062 -0.785156 0.417969 -0.777344 0.4375 -0.777344 L 0.582031 -0.777344 C 0.609375 -0.777344 0.617188 -0.785156 0.617188 -0.808594 L 0.617188 -0.851562 C 0.617188 -1.035156 0.492188 -1.152344 0.324219 -1.152344 C 0.210938 -1.152344 0.03125 -1.070312 0.03125 -0.859375 C 0.03125 -0.671875 0.109375 -0.617188 0.28125 -0.476562 C 0.382812 -0.394531 0.425781 -0.359375 0.425781 -0.277344 C 0.425781 -0.21875 0.382812 -0.179688 0.332031 -0.179688 C 0.289062 -0.179688 0.238281 -0.207031 0.238281 -0.289062 L 0.238281 -0.324219 C 0.238281 -0.351562 0.234375 -0.359375 0.210938 -0.359375 L 0.0625 -0.359375 C 0.0390625 -0.359375 0.03125 -0.347656 0.03125 -0.320312 L 0.03125 -0.277344 C 0.03125 -0.121094 0.132812 0.0195312 0.328125 0.0195312 C 0.511719 0.0195312 0.632812 -0.113281 0.632812 -0.265625 C 0.632812 -0.472656 0.511719 -0.5625 0.355469 -0.683594 C 0.285156 -0.738281 0.234375 -0.773438 0.234375 -0.851562 C 0.234375 -0.925781 0.28125 -0.957031 0.324219 -0.957031 C 0.382812 -0.957031 0.414062 -0.910156 0.414062 -0.851562 Z M 0.414062 -0.808594 "/></g></g></g><g fill="#000000" fill-opacity="1"><g transform="translate(20.557525, 18.108976)"><g><path d="M 0.277344 -0.199219 L 0.277344 -0.476562 L 0.515625 -0.476562 C 0.53125 -0.476562 0.542969 -0.484375 0.542969 -0.503906 L 0.542969 -0.644531 C 0.542969 -0.664062 0.53125 -0.671875 0.515625 -0.671875 L 0.277344 -0.671875 L 0.277344 -0.9375 L 0.578125 -0.9375 C 0.59375 -0.9375 0.601562 -0.945312 0.601562 -0.964844 L 0.601562 -1.105469 C 0.601562 -1.125 0.59375 -1.136719 0.578125 -1.136719 L 0.0859375 -1.136719 C 0.0703125 -1.136719 0.0585938 -1.125 0.0585938 -1.105469 L 0.0585938 -0.03125 C 0.0585938 -0.0117188 0.0664062 0 0.0859375 0 L 0.582031 0 C 0.59375 0 0.605469 -0.0078125 0.605469 -0.0273438 L 0.605469 -0.167969 C 0.605469 -0.1875 0.59375 -0.199219 0.582031 -0.199219 Z M 0.277344 -0.199219 "/></g></g></g><g fill="#000000" fill-opacity="1"><g transform="translate(22.047723, 18.108976)"><g><path d="M 0.652344 -0.867188 C 0.652344 -1.046875 0.511719 -1.152344 0.347656 -1.152344 C 0.183594 -1.152344 0.0429688 -1.046875 0.0429688 -0.867188 L 0.0429688 -0.265625 C 0.0429688 -0.09375 0.183594 0.0195312 0.347656 0.0195312 C 0.511719 0.0195312 0.652344 -0.0898438 0.652344 -0.265625 Z M 0.347656 -0.957031 C 0.402344 -0.957031 0.4375 -0.910156 0.4375 -0.855469 L 0.4375 -0.273438 C 0.4375 -0.222656 0.402344 -0.179688 0.347656 -0.179688 C 0.289062 -0.179688 0.257812 -0.226562 0.257812 -0.277344 L 0.257812 -0.855469 C 0.257812 -0.910156 0.292969 -0.957031 0.347656 -0.957031 Z M 0.347656 -0.957031 "/></g></g></g><g fill="#000000" fill-opacity="1"><g transform="translate(23.608478, 18.108976)"><g><path d="M 0.269531 -0.855469 C 0.269531 -0.910156 0.304688 -0.957031 0.359375 -0.957031 C 0.414062 -0.957031 0.445312 -0.910156 0.445312 -0.855469 L 0.445312 -0.460938 L 0.269531 -0.460938 Z M 0.664062 -0.867188 C 0.664062 -1.027344 0.523438 -1.152344 0.359375 -1.152344 C 0.195312 -1.152344 0.0507812 -1.027344 0.0507812 -0.867188 L 0.0507812 -0.03125 C 0.0507812 -0.015625 0.0625 0 0.0742188 0 L 0.246094 0 C 0.265625 0 0.269531 -0.015625 0.269531 -0.03125 L 0.269531 -0.269531 L 0.445312 -0.269531 L 0.445312 -0.03125 C 0.445312 -0.015625 0.457031 0 0.472656 0 L 0.636719 0 C 0.65625 0 0.664062 -0.015625 0.664062 -0.03125 Z M 0.664062 -0.867188 "/></g></g></g><g fill="#000000" fill-opacity="1"><g transform="translate(25.190562, 18.108976)"><g><path d="M 0.636719 0 C 0.65625 0 0.664062 -0.015625 0.664062 -0.03125 L 0.664062 -0.867188 C 0.664062 -1.027344 0.523438 -1.152344 0.359375 -1.152344 C 0.195312 -1.152344 0.0507812 -1.027344 0.0507812 -0.867188 L 0.0507812 -0.03125 C 0.0507812 -0.015625 0.0625 0 0.0742188 0 L 0.246094 0 C 0.265625 0 0.269531 -0.015625 0.269531 -0.03125 L 0.269531 -0.855469 C 0.269531 -0.910156 0.304688 -0.957031 0.359375 -0.957031 C 0.414062 -0.957031 0.445312 -0.910156 0.445312 -0.855469 L 0.445312 -0.03125 C 0.445312 -0.015625 0.457031 0 0.472656 0 Z M 0.636719 0 "/></g></g></g><g fill="#000000" fill-opacity="1"><g transform="translate(26.772647, 18.108976)"><g><path d="M 0.277344 -0.199219 L 0.277344 -0.476562 L 0.515625 -0.476562 C 0.53125 -0.476562 0.542969 -0.484375 0.542969 -0.503906 L 0.542969 -0.644531 C 0.542969 -0.664062 0.53125 -0.671875 0.515625 -0.671875 L 0.277344 -0.671875 L 0.277344 -0.9375 L 0.578125 -0.9375 C 0.59375 -0.9375 0.601562 -0.945312 0.601562 -0.964844 L 0.601562 -1.105469 C 0.601562 -1.125 0.59375 -1.136719 0.578125 -1.136719 L 0.0859375 -1.136719 C 0.0703125 -1.136719 0.0585938 -1.125 0.0585938 -1.105469 L 0.0585938 -0.03125 C 0.0585938 -0.0117188 0.0664062 0 0.0859375 0 L 0.582031 0 C 0.59375 0 0.605469 -0.0078125 0.605469 -0.0273438 L 0.605469 -0.167969 C 0.605469 -0.1875 0.59375 -0.199219 0.582031 -0.199219 Z M 0.277344 -0.199219 "/></g></g></g><path stroke-linecap="butt" transform="matrix(3.563279, 0, 0, 3.648649, 19.57158, 30.095805)" fill="none" stroke-linejoin="miter" d="M -0.000355643 0.000507362 L 3.072438 0.000507362 " stroke="#000000" stroke-width="1" stroke-opacity="1" stroke-miterlimit="4"/></svg>