<svg xmlns="http://www.w3.org/2000/svg" xmlns:xlink="http://www.w3.org/1999/xlink" width="48" zoomAndPan="magnify" viewBox="0 0 36 36.000001" height="48" preserveAspectRatio="xMidYMid meet" version="1.0"><defs><g/></defs><g fill="#2b2b2b" fill-opacity="1"><g transform="translate(17.172703, 25.58557)"><g><path d="M 5.816406 0.203125 C 8.222656 0.203125 10.589844 -1.347656 10.589844 -3.898438 C 10.589844 -6.203125 8.46875 -7.101562 6.203125 -8 C 4.46875 -8.714844 2.367188 -9.488281 2.367188 -11.40625 C 2.367188 -13.140625 3.777344 -14.101562 5.429688 -14.101562 C 7.753906 -14.101562 9.183594 -12.835938 9.9375 -11.0625 L 10.144531 -11.121094 L 10.0625 -13.488281 C 9.265625 -13.917969 7.9375 -14.429688 6.082031 -14.429688 C 3.082031 -14.429688 1.101562 -12.917969 1.101562 -10.53125 C 1.101562 -8.367188 2.632812 -7.511719 5.039062 -6.550781 C 6.753906 -5.855469 9.265625 -4.917969 9.265625 -2.878906 C 9.265625 -1.222656 7.855469 -0.164062 6.222656 -0.164062 C 3.386719 -0.164062 1.835938 -1.980469 1.039062 -4.121094 L 0.816406 -4.082031 L 0.917969 -1.246094 C 1.878906 -0.550781 3.671875 0.203125 5.816406 0.203125 Z M 5.816406 0.203125 "/></g></g></g><g fill="#2b2b2b" fill-opacity="1"><g transform="translate(5.433287, 25.58557)"><g><path d="M 1.039062 0 L 10.53125 0 L 10.671875 -2.304688 L 10.449219 -2.347656 C 9.734375 -0.816406 8.835938 -0.328125 6.878906 -0.328125 L 4.449219 -0.328125 C 3.855469 -0.328125 3.53125 -0.652344 3.53125 -1.246094 L 3.53125 -11.695312 C 3.53125 -13.367188 3.714844 -13.835938 4.347656 -14.019531 L 4.347656 -14.285156 L 1.039062 -14.285156 L 1.039062 -14.019531 C 1.652344 -13.835938 1.855469 -13.367188 1.855469 -11.695312 L 1.855469 -2.589844 C 1.855469 -0.917969 1.652344 -0.449219 1.039062 -0.265625 Z M 1.039062 0 "/></g></g></g></svg>